<svg width="194" height="46" viewBox="0 0 194 46" fill="none" xmlns="http://www.w3.org/2000/svg">
<g filter="url(#filter0_d_11_120)">
<path fill-rule="evenodd" clip-rule="evenodd" d="M70.7692 6.68119C67.672 3.61779 63.4623 1.72325 58.8771 1.72325C54.2927 1.72325 50.0839 3.6187 46.985 6.68119C43.8129 9.81771 41.8507 14.1592 41.8507 18.961C41.8507 23.7628 43.8137 28.1042 46.9886 31.2408C50.0857 34.3042 54.2936 36.1987 58.8806 36.1987C63.4642 36.1987 67.6729 34.3032 70.7728 31.2408C73.9458 28.1033 75.9089 23.7619 75.9089 18.961C75.9089 14.1592 73.9458 9.81771 70.771 6.68119H70.7692ZM58.8771 1.17989C64.0746 1.17989 68.7221 3.20531 72.0333 6.47992C75.2705 9.67871 77.2733 14.0924 77.2733 18.961C77.2733 23.8296 75.2686 28.2432 72.0324 31.4438C68.7203 34.7166 64.0727 36.7421 58.8762 36.7421C53.6787 36.7421 49.0311 34.7166 45.7199 31.4438C42.4828 28.2432 40.4809 23.8296 40.4809 18.961C40.4809 14.0924 42.4828 9.67871 45.7199 6.47992C49.0329 3.20531 53.6796 1.17989 58.8771 1.17989ZM58.8771 17.5439C59.6653 17.5439 60.3038 18.1784 60.3038 18.961C60.3038 19.7435 59.6653 20.378 58.8771 20.378C58.0915 20.378 57.4531 19.7435 57.4531 18.961C57.4531 18.1784 58.0897 17.5439 58.8771 17.5439ZM162.194 26.2539H181.47L171.833 2.78831L162.193 26.2539H162.194ZM183.201 36.0254H185.481L181.692 26.7973H161.969L158.177 36.0254H161.141V36.5688H154.342V36.0254H157.53L161.32 26.7973H158.984V26.2539H161.544L172.14 0.461426L186.747 36.0254H190V36.5688H183.201V36.0254ZM124.113 14.7278H126.482C127.444 14.7278 128.55 14.7278 129.498 14.1772C130.008 13.8794 130.494 13.4353 130.939 12.9073C131.443 12.308 131.886 11.6003 132.247 10.8746C132.598 10.1769 132.862 9.47562 133.079 8.79326C133.295 8.1091 133.469 7.42583 133.626 6.78319L133.677 6.57379C133.971 5.36792 134.227 4.3173 134.791 3.50497C135.082 3.08526 135.454 2.73055 135.869 2.43991C136.344 2.10866 136.882 1.85864 137.424 1.69076C137.973 1.52197 138.518 1.43803 139.061 1.39561H139.063C139.579 1.3559 140.058 1.3559 140.536 1.3559V1.89926C140.118 1.89926 139.7 1.89926 139.32 1.92814C138.964 1.95522 138.607 2.01118 138.253 2.12039C137.847 2.24676 137.434 2.44172 137.051 2.70708C136.69 2.96251 136.36 3.27571 136.1 3.65029C135.568 4.41749 135.314 5.44645 135.029 6.62614L134.977 6.83554C134.821 7.47277 134.648 8.15333 134.424 8.86096C134.198 9.5704 133.929 10.2889 133.584 10.9821C133.214 11.724 132.754 12.4533 132.226 13.0824C131.741 13.6573 131.2 14.1474 130.618 14.485C130.46 14.5753 130.299 14.6565 130.138 14.7287H131.507C133.14 14.7287 135.016 14.7287 136.682 15.9833C137.404 16.5294 138.077 17.3246 138.683 18.2615C139.351 19.2949 139.936 20.4963 140.404 21.7157C140.846 22.8674 141.189 24.0534 141.473 25.2205C141.761 26.4029 141.981 27.5239 142.18 28.5736L142.245 28.922C142.615 30.8915 142.937 32.6073 143.626 33.8989C143.947 34.4964 144.348 35.0064 144.767 35.4288C145.284 35.9487 145.825 36.3278 146.27 36.5688C146.618 36.7583 146.882 36.8468 147.101 36.8874C147.275 36.9181 147.479 36.9181 147.681 36.9181V37.4614C147.331 37.4614 146.981 37.4614 146.53 37.3784C146.12 37.3035 145.677 37.1618 145.17 36.8883C144.665 36.6157 144.06 36.1933 143.498 35.6283C143.055 35.1833 142.631 34.6444 142.293 34.0108C141.582 32.684 141.257 30.951 140.885 28.9626L140.818 28.6142C140.616 27.5401 140.394 26.3992 140.118 25.271C139.841 24.1292 139.501 22.9577 139.055 21.7978C138.59 20.5829 138.016 19.3987 137.367 18.395C136.789 17.5015 136.151 16.7469 135.478 16.2379C134.196 15.2721 132.76 15.2721 131.509 15.2721H127.614V15.254C127.226 15.2721 126.848 15.2721 126.482 15.2721H124.113V36.0281H126.831V36.5715H120.03V36.0281H122.748V1.89835H120.03V1.35319H126.83V1.89655H124.113V14.7278ZM107.609 36.0254H109.893L96.2402 2.78831L82.5873 36.0254H85.5535V36.5688H78.7542V36.0254H81.9417L96.5526 0.461426L111.16 36.0254H114.412V36.5688H107.613V36.0254H107.609ZM33.5389 1.89655V36.0254H36.2568V36.5688H29.4574V36.0254H32.1708V1.89655H8.08323V36.2971H6.71794V1.89655H4V1.35319H36.2559V1.89655H33.5389Z" fill="#BDBDBD"/>
</g>
<defs>
<filter id="filter0_d_11_120" x="0" y="0" width="194" height="46" filterUnits="userSpaceOnUse" color-interpolation-filters="sRGB">
<feFlood flood-opacity="0" result="BackgroundImageFix"/>
<feColorMatrix in="SourceAlpha" type="matrix" values="0 0 0 0 0 0 0 0 0 0 0 0 0 0 0 0 0 0 127 0" result="hardAlpha"/>
<feOffset dy="4"/>
<feGaussianBlur stdDeviation="2"/>
<feComposite in2="hardAlpha" operator="out"/>
<feColorMatrix type="matrix" values="0 0 0 0 0 0 0 0 0 0 0 0 0 0 0 0 0 0 0.25 0"/>
<feBlend mode="normal" in2="BackgroundImageFix" result="effect1_dropShadow_11_120"/>
<feBlend mode="normal" in="SourceGraphic" in2="effect1_dropShadow_11_120" result="shape"/>
</filter>
</defs>
</svg>
